<?xml version="1.0" encoding="utf-8"?>
<!-- Generator: Adobe Illustrator 21.0.2, SVG Export Plug-In . SVG Version: 6.00 Build 0)  -->
<svg version="1.1" xmlns="http://www.w3.org/2000/svg" xmlns:xlink="http://www.w3.org/1999/xlink" x="0px" y="0px"
	 viewBox="0 0 140 200" style="enable-background:new 0 0 140 200;" xml:space="preserve">
<style type="text/css">
	.st0{display:none;}
	.st1{display:inline;}
	.st2{fill:#222222;}
	.st3{font-family:'ArialMT';}
	.st4{font-size:10.5px;}
	.st5{font-size:9.1px;}
	.st6{fill:none;stroke:#222222;stroke-width:0.4;stroke-dasharray:11,4;}
	.st7{fill:none;stroke:#222222;stroke-miterlimit:10;}
	.st8{fill:#DF6D52;stroke:#000000;stroke-miterlimit:10;}
	.st9{fill:#A52115;stroke:#000000;stroke-miterlimit:10;}
	.st10{fill:#FFE8C8;stroke:#000000;stroke-miterlimit:10;}
</style>
<g id="Layer_1" class="st0">
	<g class="st1">
		<text id="title_2_" transform="matrix(1 0 0 1 16.0707 56.107)" class="st2 st3 st4">Title</text>
		<g id="maxG_1_" transform="translate(70, 46)">
			<text transform="matrix(0.906 0 0 1 48.0916 26.7063)" class="st2 st3 st5">3</text>
			<line class="st6" x1="-15.8" y1="28.1" x2="53.9" y2="28.1"/>
		</g>
		<g id="maxG_2_" transform="translate(70, 46)">
			<text transform="matrix(0.906 0 0 1 48.0916 73.1066)" class="st2 st3 st5">2</text>
			<line class="st6" x1="-15.8" y1="74.5" x2="53.9" y2="74.5"/>
		</g>
		<g id="maxG_3_" transform="translate(70, 46)">
			<text transform="matrix(0.9529 0 0 1 47.7884 93.6681)" class="st2 st3 st5">1</text>
			<line class="st6" x1="-15.8" y1="95.1" x2="53.9" y2="95.1"/>
		</g>
		<rect x="16.8" y="74.1" class="st7" width="37.3" height="78.8"/>
		<rect x="20.8" y="121.3" class="st7" width="29.2" height="31.6"/>
		<rect x="24.9" y="141.8" class="st7" width="21.1" height="11"/>
	</g>
</g>
<g id="Layer_2">
	<g>
		<text id="title" transform="matrix(1 0 0 1 16.1602 56.575)" class="st3 st4">Title</text>
		<rect x="17.2" y="69.2" class="st8" width="24.5" height="11.9"/>
		<text transform="matrix(1 0 0 1 50.7576 78.3245)" class="st3 st5">NIH</text>
		<rect x="17.2" y="106.3" class="st9" width="24.5" height="11.9"/>
		<text transform="matrix(1 0 0 1 50.7576 115.4244)" class="st3 st5">NSF</text>
		<rect x="17.2" y="143.4" class="st10" width="24.5" height="11.9"/>
		<text transform="matrix(1 0 0 1 50.2551 152.5247)" class="st3 st5">Other</text>
	</g>
</g>
</svg>
